<?xml version="1.0" encoding="utf-8"?>
<!-- Generator: Adobe Illustrator 24.3.0, SVG Export Plug-In . SVG Version: 6.00 Build 0)  -->
<svg version="1.1" id="Layer_1" xmlns="http://www.w3.org/2000/svg" xmlns:xlink="http://www.w3.org/1999/xlink" x="0px" y="0px"
	 viewBox="0 0 763.19 856.97" style="enable-background:new 0 0 763.19 856.97;" xml:space="preserve">
<style type="text/css">
	.st0{fill:#D6D6D6;}
	.st1{fill:#FFFFFF;}
	.st2{font-family:'Roboto-Bold';}
	.st3{font-size:93.7847px;}
</style>
<path class="st0" d="M499.7,588.49H262.28L212.99,750.3H59.57L306.55,0h150.4l245.97,750.3H549.5L499.7,588.49z M298.5,470.48
	h165.49l-80.99-264.36h-3.02L298.5,470.48z"/>
<path class="st0" d="M175.34,861.49H0v-68.62h175.34V861.49z"/>
<path class="st0" d="M761.96,861.49H586.62v-68.62h175.34V861.49z"/>
<path class="st1" d="M379.15,553.11h3.02L570.36,0h191.71v750.54H615.14V238.15l-3.02-0.52L430.98,750.54h-99.63L150.21,236.61
	l-3.02,0.52v513.42H0.26V0h192.72L379.15,553.11z"/>
<text transform="matrix(0.3917 0 0 1 188.355 856.968)" class="st1 st2 st3">ABDULLAH AL MAMUN</text>
</svg>
